<?xml version="1.0" encoding="utf-8" standalone="no"?>
<!DOCTYPE svg PUBLIC "-//W3C//DTD SVG 1.1//EN"
  "http://www.w3.org/Graphics/SVG/1.1/DTD/svg11.dtd">
<svg xmlns:xlink="http://www.w3.org/1999/xlink" width="684.77125pt" height="438.56pt" viewBox="0 0 684.77125 438.56" xmlns="http://www.w3.org/2000/svg" version="1.1">
 <metadata>
  <rdf:RDF xmlns:dc="http://purl.org/dc/elements/1.1/" xmlns:cc="http://creativecommons.org/ns#" xmlns:rdf="http://www.w3.org/1999/02/22-rdf-syntax-ns#">
   <cc:Work>
    <dc:type rdf:resource="http://purl.org/dc/dcmitype/StillImage"/>
    <dc:date>2026-03-01T15:25:46.552943</dc:date>
    <dc:format>image/svg+xml</dc:format>
    <dc:creator>
     <cc:Agent>
      <dc:title>Matplotlib v3.10.8, https://matplotlib.org/</dc:title>
     </cc:Agent>
    </dc:creator>
   </cc:Work>
  </rdf:RDF>
 </metadata>
 <defs>
  <style type="text/css">*{stroke-linejoin: round; stroke-linecap: butt}</style>
 </defs>
 <g id="figure_1">
  <g id="patch_1">
   <path d="M 0 438.56 
L 684.77125 438.56 
L 684.77125 0 
L 0 0 
z
" style="fill: #ffffff"/>
  </g>
  <g id="axes_1">
   <g id="patch_2">
    <path d="M 452.28 192.38 
L 443.28 204.98 
L 434.28 192.38 
L 452.28 192.38 
z
" clip-path="url(#p214ae73089)" style="fill: none; stroke: #000000; stroke-width: 2; stroke-linecap: round"/>
   </g>
   <g id="patch_3">
    <path d="M 506.28 204.98 
L 515.28 192.38 
L 524.28 204.98 
L 506.28 204.98 
z
" clip-path="url(#p214ae73089)" style="fill: none; stroke: #000000; stroke-width: 2; stroke-linecap: round"/>
   </g>
   <g id="line2d_1">
    <path d="M 65.16 144.68 
L 65.16 180.68 
L 74.16 183.68 
L 56.16 189.68 
L 74.16 195.68 
L 56.16 201.68 
L 74.16 207.68 
L 56.16 213.68 
L 65.16 216.68 
L 65.16 252.68 
" clip-path="url(#p214ae73089)" style="fill: none; stroke: #000000; stroke-width: 2; stroke-linecap: round"/>
   </g>
   <g id="line2d_2">
    <path d="M 65.16 252.68 
L 65.16 267.08 
L 56.16 267.08 
L 74.16 267.08 
M 58.86 271.4 
L 71.46 271.4 
M 63.36 275.72 
L 66.96 275.72 
" clip-path="url(#p214ae73089)" style="fill: none; stroke: #000000; stroke-width: 2; stroke-linecap: round"/>
   </g>
   <g id="line2d_3">
    <path d="M 65.16 144.68 
L 115.92 144.68 
M 115.92 135.68 
L 115.92 153.68 
M 122.4 135.68 
L 122.4 153.68 
M 122.4 144.68 
L 173.16 144.68 
" clip-path="url(#p214ae73089)" style="fill: none; stroke: #000000; stroke-width: 2; stroke-linecap: round"/>
   </g>
   <g id="line2d_4">
    <path d="M 173.16 144.68 
L 186.36 144.68 
" clip-path="url(#p214ae73089)" style="fill: none; stroke: #000000; stroke-width: 2; stroke-linecap: round"/>
   </g>
   <g id="line2d_5">
    <path d="M 186.36 131.48 
L 186.36 157.88 
" clip-path="url(#p214ae73089)" style="fill: none; stroke: #000000; stroke-width: 2; stroke-linecap: round"/>
   </g>
   <g id="line2d_6">
    <path d="M 186.36 138.08 
L 200.22 126.2 
L 200.22 119.6 
" clip-path="url(#p214ae73089)" style="fill: none; stroke: #000000; stroke-width: 2; stroke-linecap: round"/>
   </g>
   <g id="line2d_7">
    <path d="M 186.36 151.28 
L 200.22 163.16 
L 200.22 169.76 
" clip-path="url(#p214ae73089)" style="fill: none; stroke: #000000; stroke-width: 2; stroke-linecap: round"/>
   </g>
   <g id="line2d_8">
    <path d="M 186.36 151.28 
L 193.386691 157.302878 
" clip-path="url(#p214ae73089)" style="fill: none; stroke: #000000; stroke-width: 2; stroke-linecap: round"/>
   </g>
   <g id="patch_4">
    <path d="M 195.72954 154.569554 
L 200.22 163.16 
L 191.043842 160.036201 
z
" clip-path="url(#p214ae73089)"/>
   </g>
   <g id="line2d_9">
    <path d="M 200.22 119.6 
L 200.22 105.2 
" clip-path="url(#p214ae73089)" style="fill: none; stroke: #000000; stroke-width: 2; stroke-linecap: round"/>
   </g>
   <g id="line2d_10">
    <path d="M 200.22 105.2 
L 193.47 105.2 
" clip-path="url(#p214ae73089)" style="fill: none; stroke: #000000; stroke-width: 2; stroke-linecap: round"/>
   </g>
   <g id="line2d_11">
    <path d="M 200.22 105.2 
L 206.97 105.2 
" clip-path="url(#p214ae73089)" style="fill: none; stroke: #000000; stroke-width: 2; stroke-linecap: round"/>
   </g>
   <g id="line2d_12">
    <path d="M 200.22 169.76 
L 200.22 205.76 
L 209.22 208.76 
L 191.22 214.76 
L 209.22 220.76 
L 191.22 226.76 
L 209.22 232.76 
L 191.22 238.76 
L 200.22 241.76 
L 200.22 277.76 
" clip-path="url(#p214ae73089)" style="fill: none; stroke: #000000; stroke-width: 2; stroke-linecap: round"/>
   </g>
   <g id="line2d_13">
    <path d="M 200.22 277.76 
L 200.22 292.16 
L 191.22 292.16 
L 209.22 292.16 
M 193.92 296.48 
L 206.52 296.48 
M 198.42 300.8 
L 202.02 300.8 
" clip-path="url(#p214ae73089)" style="fill: none; stroke: #000000; stroke-width: 2; stroke-linecap: round"/>
   </g>
   <g id="line2d_14">
    <path d="M 200.22 169.76 
L 250.98 169.76 
M 250.98 160.76 
L 250.98 178.76 
M 257.46 160.76 
L 257.46 178.76 
M 257.46 169.76 
L 308.22 169.76 
" clip-path="url(#p214ae73089)" style="fill: none; stroke: #000000; stroke-width: 2; stroke-linecap: round"/>
   </g>
   <g id="line2d_15">
    <path d="M 308.22 169.76 
L 308.22 133.76 
L 299.22 130.76 
L 317.22 124.76 
L 299.22 118.76 
L 317.22 112.76 
L 299.22 106.76 
L 317.22 100.76 
L 308.22 97.76 
L 308.22 61.76 
" clip-path="url(#p214ae73089)" style="fill: none; stroke: #000000; stroke-width: 2; stroke-linecap: round"/>
   </g>
   <g id="line2d_16">
    <path d="M 308.22 61.76 
L 308.22 47.36 
" clip-path="url(#p214ae73089)" style="fill: none; stroke: #000000; stroke-width: 2; stroke-linecap: round"/>
   </g>
   <g id="line2d_17">
    <path d="M 308.22 47.36 
L 301.47 47.36 
" clip-path="url(#p214ae73089)" style="fill: none; stroke: #000000; stroke-width: 2; stroke-linecap: round"/>
   </g>
   <g id="line2d_18">
    <path d="M 308.22 47.36 
L 314.97 47.36 
" clip-path="url(#p214ae73089)" style="fill: none; stroke: #000000; stroke-width: 2; stroke-linecap: round"/>
   </g>
   <g id="line2d_19">
    <path d="M 308.22 169.76 
L 321.42 169.76 
" clip-path="url(#p214ae73089)" style="fill: none; stroke: #000000; stroke-width: 2; stroke-linecap: round"/>
   </g>
   <g id="line2d_20">
    <path d="M 321.42 156.56 
L 321.42 182.96 
" clip-path="url(#p214ae73089)" style="fill: none; stroke: #000000; stroke-width: 2; stroke-linecap: round"/>
   </g>
   <g id="line2d_21">
    <path d="M 321.42 163.16 
L 335.28 151.28 
L 335.28 144.68 
" clip-path="url(#p214ae73089)" style="fill: none; stroke: #000000; stroke-width: 2; stroke-linecap: round"/>
   </g>
   <g id="line2d_22">
    <path d="M 321.42 176.36 
L 335.28 188.24 
L 335.28 194.84 
" clip-path="url(#p214ae73089)" style="fill: none; stroke: #000000; stroke-width: 2; stroke-linecap: round"/>
   </g>
   <g id="line2d_23">
    <path d="M 321.42 176.36 
L 328.446691 182.382878 
" clip-path="url(#p214ae73089)" style="fill: none; stroke: #000000; stroke-width: 2; stroke-linecap: round"/>
   </g>
   <g id="patch_5">
    <path d="M 330.78954 179.649554 
L 335.28 188.24 
L 326.103842 185.116201 
z
" clip-path="url(#p214ae73089)"/>
   </g>
   <g id="line2d_24">
    <path d="M 335.28 144.68 
L 335.28 108.68 
L 326.28 105.68 
L 344.28 99.68 
L 326.28 93.68 
L 344.28 87.68 
L 326.28 81.68 
L 344.28 75.68 
L 335.28 72.68 
L 335.28 36.68 
" clip-path="url(#p214ae73089)" style="fill: none; stroke: #000000; stroke-width: 2; stroke-linecap: round"/>
   </g>
   <g id="line2d_25">
    <path d="M 335.28 36.68 
L 335.28 22.28 
" clip-path="url(#p214ae73089)" style="fill: none; stroke: #000000; stroke-width: 2; stroke-linecap: round"/>
   </g>
   <g id="line2d_26">
    <path d="M 335.28 22.28 
L 328.53 22.28 
" clip-path="url(#p214ae73089)" style="fill: none; stroke: #000000; stroke-width: 2; stroke-linecap: round"/>
   </g>
   <g id="line2d_27">
    <path d="M 335.28 22.28 
L 342.03 22.28 
" clip-path="url(#p214ae73089)" style="fill: none; stroke: #000000; stroke-width: 2; stroke-linecap: round"/>
   </g>
   <g id="line2d_28">
    <path d="M 335.28 194.84 
L 335.28 230.84 
L 344.28 233.84 
L 326.28 239.84 
L 344.28 245.84 
L 326.28 251.84 
L 344.28 257.84 
L 326.28 263.84 
L 335.28 266.84 
L 335.28 302.84 
" clip-path="url(#p214ae73089)" style="fill: none; stroke: #000000; stroke-width: 2; stroke-linecap: round"/>
   </g>
   <g id="line2d_29">
    <path d="M 335.28 302.84 
L 335.28 338.84 
L 344.28 341.84 
L 326.28 347.84 
L 344.28 353.84 
L 326.28 359.84 
L 344.28 365.84 
L 326.28 371.84 
L 335.28 374.84 
L 335.28 410.84 
" clip-path="url(#p214ae73089)" style="fill: none; stroke: #000000; stroke-width: 2; stroke-linecap: round"/>
   </g>
   <g id="line2d_30">
    <path d="M 361.2 356.84 
L 353.28 356.84 
" clip-path="url(#p214ae73089)" style="fill: none; stroke: #000000; stroke-width: 2; stroke-linecap: round"/>
   </g>
   <g id="patch_6">
    <path d="M 353.28 359.54 
L 344.28 356.84 
L 353.28 354.14 
z
" clip-path="url(#p214ae73089)"/>
   </g>
   <g id="line2d_31">
    <path d="M 335.28 410.84 
L 335.28 425.24 
L 326.28 425.24 
L 344.28 425.24 
M 328.98 429.56 
L 341.58 429.56 
M 333.48 433.88 
L 337.08 433.88 
" clip-path="url(#p214ae73089)" style="fill: none; stroke: #000000; stroke-width: 2; stroke-linecap: round"/>
   </g>
   <g id="line2d_32">
    <path d="M 335.28 144.68 
L 386.04 144.68 
M 386.04 135.68 
L 386.04 153.68 
M 392.52 135.68 
L 392.52 153.68 
M 392.52 144.68 
L 443.28 144.68 
" clip-path="url(#p214ae73089)" style="fill: none; stroke: #000000; stroke-width: 2; stroke-linecap: round"/>
   </g>
   <g id="line2d_33">
    <path d="M 443.28 144.68 
L 443.28 192.38 
M 452.28 204.98 
L 434.28 204.98 
M 443.28 204.98 
L 443.28 252.68 
" clip-path="url(#p214ae73089)" style="fill: none; stroke: #000000; stroke-width: 2; stroke-linecap: round"/>
   </g>
   <g id="line2d_34">
    <path d="M 443.28 252.68 
L 443.28 267.08 
L 434.28 267.08 
L 452.28 267.08 
M 436.98 271.4 
L 449.58 271.4 
M 441.48 275.72 
L 445.08 275.72 
" clip-path="url(#p214ae73089)" style="fill: none; stroke: #000000; stroke-width: 2; stroke-linecap: round"/>
   </g>
   <g id="line2d_35">
    <path d="M 443.28 144.68 
L 479.28 144.68 
L 515.28 144.68 
" clip-path="url(#p214ae73089)" style="fill: none; stroke: #000000; stroke-width: 2; stroke-linecap: round"/>
   </g>
   <g id="line2d_36">
    <path d="M 515.28 144.68 
L 515.28 192.38 
M 506.28 192.38 
L 524.28 192.38 
M 515.28 204.98 
L 515.28 252.68 
" clip-path="url(#p214ae73089)" style="fill: none; stroke: #000000; stroke-width: 2; stroke-linecap: round"/>
   </g>
   <g id="line2d_37">
    <path d="M 515.28 252.68 
L 515.28 267.08 
L 506.28 267.08 
L 524.28 267.08 
M 508.98 271.4 
L 521.58 271.4 
M 513.48 275.72 
L 517.08 275.72 
" clip-path="url(#p214ae73089)" style="fill: none; stroke: #000000; stroke-width: 2; stroke-linecap: round"/>
   </g>
   <g id="line2d_38">
    <path d="M 515.28 144.68 
L 551.28 144.68 
L 587.28 144.68 
" clip-path="url(#p214ae73089)" style="fill: none; stroke: #000000; stroke-width: 2; stroke-linecap: round"/>
   </g>
   <g id="line2d_39">
    <path d="M 587.28 144.68 
L 587.28 180.68 
L 596.28 183.68 
L 578.28 189.68 
L 596.28 195.68 
L 578.28 201.68 
L 596.28 207.68 
L 578.28 213.68 
L 587.28 216.68 
L 587.28 252.68 
" clip-path="url(#p214ae73089)" style="fill: none; stroke: #000000; stroke-width: 2; stroke-linecap: round"/>
   </g>
   <g id="line2d_40">
    <path d="M 613.2 198.68 
L 605.28 198.68 
" clip-path="url(#p214ae73089)" style="fill: none; stroke: #000000; stroke-width: 2; stroke-linecap: round"/>
   </g>
   <g id="patch_7">
    <path d="M 605.28 201.38 
L 596.28 198.68 
L 605.28 195.98 
z
" clip-path="url(#p214ae73089)"/>
   </g>
   <g id="line2d_41">
    <path d="M 587.28 252.68 
L 587.28 267.08 
L 578.28 267.08 
L 596.28 267.08 
M 580.98 271.4 
L 593.58 271.4 
M 585.48 275.72 
L 589.08 275.72 
" clip-path="url(#p214ae73089)" style="fill: none; stroke: #000000; stroke-width: 2; stroke-linecap: round"/>
   </g>
   <g id="line2d_42">
    <path d="M 587.28 144.68 
L 623.28 144.68 
L 659.28 144.68 
" clip-path="url(#p214ae73089)" style="fill: none; stroke: #000000; stroke-width: 2; stroke-linecap: round"/>
   </g>
   <g id="text_1">
    <!-- 2.2Meg -->
    <g transform="translate(0.714062 202.543125) scale(0.14 -0.14)">
     <defs>
      <path id="DejaVuSans-32" d="M 1228 531 
L 3431 531 
L 3431 0 
L 469 0 
L 469 531 
Q 828 903 1448 1529 
Q 2069 2156 2228 2338 
Q 2531 2678 2651 2914 
Q 2772 3150 2772 3378 
Q 2772 3750 2511 3984 
Q 2250 4219 1831 4219 
Q 1534 4219 1204 4116 
Q 875 4013 500 3803 
L 500 4441 
Q 881 4594 1212 4672 
Q 1544 4750 1819 4750 
Q 2544 4750 2975 4387 
Q 3406 4025 3406 3419 
Q 3406 3131 3298 2873 
Q 3191 2616 2906 2266 
Q 2828 2175 2409 1742 
Q 1991 1309 1228 531 
z
" transform="scale(0.015625)"/>
      <path id="DejaVuSans-2e" d="M 684 794 
L 1344 794 
L 1344 0 
L 684 0 
L 684 794 
z
" transform="scale(0.015625)"/>
      <path id="DejaVuSans-4d" d="M 628 4666 
L 1569 4666 
L 2759 1491 
L 3956 4666 
L 4897 4666 
L 4897 0 
L 4281 0 
L 4281 4097 
L 3078 897 
L 2444 897 
L 1241 4097 
L 1241 0 
L 628 0 
L 628 4666 
z
" transform="scale(0.015625)"/>
      <path id="DejaVuSans-65" d="M 3597 1894 
L 3597 1613 
L 953 1613 
Q 991 1019 1311 708 
Q 1631 397 2203 397 
Q 2534 397 2845 478 
Q 3156 559 3463 722 
L 3463 178 
Q 3153 47 2828 -22 
Q 2503 -91 2169 -91 
Q 1331 -91 842 396 
Q 353 884 353 1716 
Q 353 2575 817 3079 
Q 1281 3584 2069 3584 
Q 2775 3584 3186 3129 
Q 3597 2675 3597 1894 
z
M 3022 2063 
Q 3016 2534 2758 2815 
Q 2500 3097 2075 3097 
Q 1594 3097 1305 2825 
Q 1016 2553 972 2059 
L 3022 2063 
z
" transform="scale(0.015625)"/>
      <path id="DejaVuSans-67" d="M 2906 1791 
Q 2906 2416 2648 2759 
Q 2391 3103 1925 3103 
Q 1463 3103 1205 2759 
Q 947 2416 947 1791 
Q 947 1169 1205 825 
Q 1463 481 1925 481 
Q 2391 481 2648 825 
Q 2906 1169 2906 1791 
z
M 3481 434 
Q 3481 -459 3084 -895 
Q 2688 -1331 1869 -1331 
Q 1566 -1331 1297 -1286 
Q 1028 -1241 775 -1147 
L 775 -588 
Q 1028 -725 1275 -790 
Q 1522 -856 1778 -856 
Q 2344 -856 2625 -561 
Q 2906 -266 2906 331 
L 2906 616 
Q 2728 306 2450 153 
Q 2172 0 1784 0 
Q 1141 0 747 490 
Q 353 981 353 1791 
Q 353 2603 747 3093 
Q 1141 3584 1784 3584 
Q 2172 3584 2450 3431 
Q 2728 3278 2906 2969 
L 2906 3500 
L 3481 3500 
L 3481 434 
z
" transform="scale(0.015625)"/>
     </defs>
     <use xlink:href="#DejaVuSans-32"/>
     <use xlink:href="#DejaVuSans-2e" transform="translate(63.623047 0)"/>
     <use xlink:href="#DejaVuSans-32" transform="translate(95.410156 0)"/>
     <use xlink:href="#DejaVuSans-4d" transform="translate(159.033203 0)"/>
     <use xlink:href="#DejaVuSans-65" transform="translate(245.3125 0)"/>
     <use xlink:href="#DejaVuSans-67" transform="translate(306.835938 0)"/>
    </g>
   </g>
   <g id="text_2">
    <!-- 0.1u -->
    <g transform="translate(103.591563 129.168437) scale(0.14 -0.14)">
     <defs>
      <path id="DejaVuSans-30" d="M 2034 4250 
Q 1547 4250 1301 3770 
Q 1056 3291 1056 2328 
Q 1056 1369 1301 889 
Q 1547 409 2034 409 
Q 2525 409 2770 889 
Q 3016 1369 3016 2328 
Q 3016 3291 2770 3770 
Q 2525 4250 2034 4250 
z
M 2034 4750 
Q 2819 4750 3233 4129 
Q 3647 3509 3647 2328 
Q 3647 1150 3233 529 
Q 2819 -91 2034 -91 
Q 1250 -91 836 529 
Q 422 1150 422 2328 
Q 422 3509 836 4129 
Q 1250 4750 2034 4750 
z
" transform="scale(0.015625)"/>
      <path id="DejaVuSans-31" d="M 794 531 
L 1825 531 
L 1825 4091 
L 703 3866 
L 703 4441 
L 1819 4666 
L 2450 4666 
L 2450 531 
L 3481 531 
L 3481 0 
L 794 0 
L 794 531 
z
" transform="scale(0.015625)"/>
      <path id="DejaVuSans-75" d="M 544 1381 
L 544 3500 
L 1119 3500 
L 1119 1403 
Q 1119 906 1312 657 
Q 1506 409 1894 409 
Q 2359 409 2629 706 
Q 2900 1003 2900 1516 
L 2900 3500 
L 3475 3500 
L 3475 0 
L 2900 0 
L 2900 538 
Q 2691 219 2414 64 
Q 2138 -91 1772 -91 
Q 1169 -91 856 284 
Q 544 659 544 1381 
z
M 1991 3584 
L 1991 3584 
z
" transform="scale(0.015625)"/>
     </defs>
     <use xlink:href="#DejaVuSans-30"/>
     <use xlink:href="#DejaVuSans-2e" transform="translate(63.623047 0)"/>
     <use xlink:href="#DejaVuSans-31" transform="translate(95.410156 0)"/>
     <use xlink:href="#DejaVuSans-75" transform="translate(159.033203 0)"/>
    </g>
   </g>
   <g id="text_3">
    <!-- 2n3904 -->
    <g transform="translate(203.82 148.843125) scale(0.14 -0.14)">
     <defs>
      <path id="DejaVuSans-6e" d="M 3513 2113 
L 3513 0 
L 2938 0 
L 2938 2094 
Q 2938 2591 2744 2837 
Q 2550 3084 2163 3084 
Q 1697 3084 1428 2787 
Q 1159 2491 1159 1978 
L 1159 0 
L 581 0 
L 581 3500 
L 1159 3500 
L 1159 2956 
Q 1366 3272 1645 3428 
Q 1925 3584 2291 3584 
Q 2894 3584 3203 3211 
Q 3513 2838 3513 2113 
z
" transform="scale(0.015625)"/>
      <path id="DejaVuSans-33" d="M 2597 2516 
Q 3050 2419 3304 2112 
Q 3559 1806 3559 1356 
Q 3559 666 3084 287 
Q 2609 -91 1734 -91 
Q 1441 -91 1130 -33 
Q 819 25 488 141 
L 488 750 
Q 750 597 1062 519 
Q 1375 441 1716 441 
Q 2309 441 2620 675 
Q 2931 909 2931 1356 
Q 2931 1769 2642 2001 
Q 2353 2234 1838 2234 
L 1294 2234 
L 1294 2753 
L 1863 2753 
Q 2328 2753 2575 2939 
Q 2822 3125 2822 3475 
Q 2822 3834 2567 4026 
Q 2313 4219 1838 4219 
Q 1578 4219 1281 4162 
Q 984 4106 628 3988 
L 628 4550 
Q 988 4650 1302 4700 
Q 1616 4750 1894 4750 
Q 2613 4750 3031 4423 
Q 3450 4097 3450 3541 
Q 3450 3153 3228 2886 
Q 3006 2619 2597 2516 
z
" transform="scale(0.015625)"/>
      <path id="DejaVuSans-39" d="M 703 97 
L 703 672 
Q 941 559 1184 500 
Q 1428 441 1663 441 
Q 2288 441 2617 861 
Q 2947 1281 2994 2138 
Q 2813 1869 2534 1725 
Q 2256 1581 1919 1581 
Q 1219 1581 811 2004 
Q 403 2428 403 3163 
Q 403 3881 828 4315 
Q 1253 4750 1959 4750 
Q 2769 4750 3195 4129 
Q 3622 3509 3622 2328 
Q 3622 1225 3098 567 
Q 2575 -91 1691 -91 
Q 1453 -91 1209 -44 
Q 966 3 703 97 
z
M 1959 2075 
Q 2384 2075 2632 2365 
Q 2881 2656 2881 3163 
Q 2881 3666 2632 3958 
Q 2384 4250 1959 4250 
Q 1534 4250 1286 3958 
Q 1038 3666 1038 3163 
Q 1038 2656 1286 2365 
Q 1534 2075 1959 2075 
z
" transform="scale(0.015625)"/>
      <path id="DejaVuSans-34" d="M 2419 4116 
L 825 1625 
L 2419 1625 
L 2419 4116 
z
M 2253 4666 
L 3047 4666 
L 3047 1625 
L 3713 1625 
L 3713 1100 
L 3047 1100 
L 3047 0 
L 2419 0 
L 2419 1100 
L 313 1100 
L 313 1709 
L 2253 4666 
z
" transform="scale(0.015625)"/>
     </defs>
     <use xlink:href="#DejaVuSans-32"/>
     <use xlink:href="#DejaVuSans-6e" transform="translate(63.623047 0)"/>
     <use xlink:href="#DejaVuSans-33" transform="translate(127.001953 0)"/>
     <use xlink:href="#DejaVuSans-39" transform="translate(190.625 0)"/>
     <use xlink:href="#DejaVuSans-30" transform="translate(254.248047 0)"/>
     <use xlink:href="#DejaVuSans-34" transform="translate(317.871094 0)"/>
    </g>
   </g>
   <g id="text_4">
    <!-- 9V -->
    <g transform="translate(190.977813 98.688437) scale(0.14 -0.14)">
     <defs>
      <path id="DejaVuSans-56" d="M 1831 0 
L 50 4666 
L 709 4666 
L 2188 738 
L 3669 4666 
L 4325 4666 
L 2547 0 
L 1831 0 
z
" transform="scale(0.015625)"/>
     </defs>
     <use xlink:href="#DejaVuSans-39"/>
     <use xlink:href="#DejaVuSans-56" transform="translate(63.623047 0)"/>
    </g>
   </g>
   <g id="text_5">
    <!-- 10k -->
    <g transform="translate(161.698125 227.623125) scale(0.14 -0.14)">
     <defs>
      <path id="DejaVuSans-6b" d="M 581 4863 
L 1159 4863 
L 1159 1991 
L 2875 3500 
L 3609 3500 
L 1753 1863 
L 3688 0 
L 2938 0 
L 1159 1709 
L 1159 0 
L 581 0 
L 581 4863 
z
" transform="scale(0.015625)"/>
     </defs>
     <use xlink:href="#DejaVuSans-31"/>
     <use xlink:href="#DejaVuSans-30" transform="translate(63.623047 0)"/>
     <use xlink:href="#DejaVuSans-6b" transform="translate(127.246094 0)"/>
    </g>
   </g>
   <g id="text_6">
    <!-- 0.1u -->
    <g transform="translate(238.651563 154.248437) scale(0.14 -0.14)">
     <use xlink:href="#DejaVuSans-30"/>
     <use xlink:href="#DejaVuSans-2e" transform="translate(63.623047 0)"/>
     <use xlink:href="#DejaVuSans-31" transform="translate(95.410156 0)"/>
     <use xlink:href="#DejaVuSans-75" transform="translate(159.033203 0)"/>
    </g>
   </g>
   <g id="text_7">
    <!-- 2.2Meg -->
    <g transform="translate(243.774063 119.623125) scale(0.14 -0.14)">
     <use xlink:href="#DejaVuSans-32"/>
     <use xlink:href="#DejaVuSans-2e" transform="translate(63.623047 0)"/>
     <use xlink:href="#DejaVuSans-32" transform="translate(95.410156 0)"/>
     <use xlink:href="#DejaVuSans-4d" transform="translate(159.033203 0)"/>
     <use xlink:href="#DejaVuSans-65" transform="translate(245.3125 0)"/>
     <use xlink:href="#DejaVuSans-67" transform="translate(306.835938 0)"/>
    </g>
   </g>
   <g id="text_8">
    <!-- 9V -->
    <g transform="translate(298.977813 40.848437) scale(0.14 -0.14)">
     <use xlink:href="#DejaVuSans-39"/>
     <use xlink:href="#DejaVuSans-56" transform="translate(63.623047 0)"/>
    </g>
   </g>
   <g id="text_9">
    <!-- 2n3904 -->
    <g transform="translate(338.88 173.923125) scale(0.14 -0.14)">
     <use xlink:href="#DejaVuSans-32"/>
     <use xlink:href="#DejaVuSans-6e" transform="translate(63.623047 0)"/>
     <use xlink:href="#DejaVuSans-33" transform="translate(127.001953 0)"/>
     <use xlink:href="#DejaVuSans-39" transform="translate(190.625 0)"/>
     <use xlink:href="#DejaVuSans-30" transform="translate(254.248047 0)"/>
     <use xlink:href="#DejaVuSans-34" transform="translate(317.871094 0)"/>
    </g>
   </g>
   <g id="text_10">
    <!-- 4.7k -->
    <g transform="translate(292.30875 94.543125) scale(0.14 -0.14)">
     <defs>
      <path id="DejaVuSans-37" d="M 525 4666 
L 3525 4666 
L 3525 4397 
L 1831 0 
L 1172 0 
L 2766 4134 
L 525 4134 
L 525 4666 
z
" transform="scale(0.015625)"/>
     </defs>
     <use xlink:href="#DejaVuSans-34"/>
     <use xlink:href="#DejaVuSans-2e" transform="translate(63.623047 0)"/>
     <use xlink:href="#DejaVuSans-37" transform="translate(95.410156 0)"/>
     <use xlink:href="#DejaVuSans-6b" transform="translate(159.033203 0)"/>
    </g>
   </g>
   <g id="text_11">
    <!-- 9V -->
    <g transform="translate(326.037813 15.768437) scale(0.14 -0.14)">
     <use xlink:href="#DejaVuSans-39"/>
     <use xlink:href="#DejaVuSans-56" transform="translate(63.623047 0)"/>
    </g>
   </g>
   <g id="text_12">
    <!-- 100 -->
    <g transform="translate(295.9575 252.703125) scale(0.14 -0.14)">
     <use xlink:href="#DejaVuSans-31"/>
     <use xlink:href="#DejaVuSans-30" transform="translate(63.623047 0)"/>
     <use xlink:href="#DejaVuSans-30" transform="translate(127.246094 0)"/>
    </g>
   </g>
   <g id="text_13">
    <!-- 1k_drive -->
    <g transform="translate(370.2 360.508437) scale(0.14 -0.14)">
     <defs>
      <path id="DejaVuSans-5f" d="M 3263 -1063 
L 3263 -1509 
L -63 -1509 
L -63 -1063 
L 3263 -1063 
z
" transform="scale(0.015625)"/>
      <path id="DejaVuSans-64" d="M 2906 2969 
L 2906 4863 
L 3481 4863 
L 3481 0 
L 2906 0 
L 2906 525 
Q 2725 213 2448 61 
Q 2172 -91 1784 -91 
Q 1150 -91 751 415 
Q 353 922 353 1747 
Q 353 2572 751 3078 
Q 1150 3584 1784 3584 
Q 2172 3584 2448 3432 
Q 2725 3281 2906 2969 
z
M 947 1747 
Q 947 1113 1208 752 
Q 1469 391 1925 391 
Q 2381 391 2643 752 
Q 2906 1113 2906 1747 
Q 2906 2381 2643 2742 
Q 2381 3103 1925 3103 
Q 1469 3103 1208 2742 
Q 947 2381 947 1747 
z
" transform="scale(0.015625)"/>
      <path id="DejaVuSans-72" d="M 2631 2963 
Q 2534 3019 2420 3045 
Q 2306 3072 2169 3072 
Q 1681 3072 1420 2755 
Q 1159 2438 1159 1844 
L 1159 0 
L 581 0 
L 581 3500 
L 1159 3500 
L 1159 2956 
Q 1341 3275 1631 3429 
Q 1922 3584 2338 3584 
Q 2397 3584 2469 3576 
Q 2541 3569 2628 3553 
L 2631 2963 
z
" transform="scale(0.015625)"/>
      <path id="DejaVuSans-69" d="M 603 3500 
L 1178 3500 
L 1178 0 
L 603 0 
L 603 3500 
z
M 603 4863 
L 1178 4863 
L 1178 4134 
L 603 4134 
L 603 4863 
z
" transform="scale(0.015625)"/>
      <path id="DejaVuSans-76" d="M 191 3500 
L 800 3500 
L 1894 563 
L 2988 3500 
L 3597 3500 
L 2284 0 
L 1503 0 
L 191 3500 
z
" transform="scale(0.015625)"/>
     </defs>
     <use xlink:href="#DejaVuSans-31"/>
     <use xlink:href="#DejaVuSans-6b" transform="translate(63.623047 0)"/>
     <use xlink:href="#DejaVuSans-5f" transform="translate(121.533203 0)"/>
     <use xlink:href="#DejaVuSans-64" transform="translate(171.533203 0)"/>
     <use xlink:href="#DejaVuSans-72" transform="translate(235.009766 0)"/>
     <use xlink:href="#DejaVuSans-69" transform="translate(276.123047 0)"/>
     <use xlink:href="#DejaVuSans-76" transform="translate(303.90625 0)"/>
     <use xlink:href="#DejaVuSans-65" transform="translate(363.085938 0)"/>
    </g>
   </g>
   <g id="text_14">
    <!-- 0.1u -->
    <g transform="translate(373.711563 129.168437) scale(0.14 -0.14)">
     <use xlink:href="#DejaVuSans-30"/>
     <use xlink:href="#DejaVuSans-2e" transform="translate(63.623047 0)"/>
     <use xlink:href="#DejaVuSans-31" transform="translate(95.410156 0)"/>
     <use xlink:href="#DejaVuSans-75" transform="translate(159.033203 0)"/>
    </g>
   </g>
   <g id="text_15">
    <!-- 1n4148 -->
    <g transform="translate(377.27 202.543125) scale(0.14 -0.14)">
     <defs>
      <path id="DejaVuSans-38" d="M 2034 2216 
Q 1584 2216 1326 1975 
Q 1069 1734 1069 1313 
Q 1069 891 1326 650 
Q 1584 409 2034 409 
Q 2484 409 2743 651 
Q 3003 894 3003 1313 
Q 3003 1734 2745 1975 
Q 2488 2216 2034 2216 
z
M 1403 2484 
Q 997 2584 770 2862 
Q 544 3141 544 3541 
Q 544 4100 942 4425 
Q 1341 4750 2034 4750 
Q 2731 4750 3128 4425 
Q 3525 4100 3525 3541 
Q 3525 3141 3298 2862 
Q 3072 2584 2669 2484 
Q 3125 2378 3379 2068 
Q 3634 1759 3634 1313 
Q 3634 634 3220 271 
Q 2806 -91 2034 -91 
Q 1263 -91 848 271 
Q 434 634 434 1313 
Q 434 1759 690 2068 
Q 947 2378 1403 2484 
z
M 1172 3481 
Q 1172 3119 1398 2916 
Q 1625 2713 2034 2713 
Q 2441 2713 2670 2916 
Q 2900 3119 2900 3481 
Q 2900 3844 2670 4047 
Q 2441 4250 2034 4250 
Q 1625 4250 1398 4047 
Q 1172 3844 1172 3481 
z
" transform="scale(0.015625)"/>
     </defs>
     <use xlink:href="#DejaVuSans-31"/>
     <use xlink:href="#DejaVuSans-6e" transform="translate(63.623047 0)"/>
     <use xlink:href="#DejaVuSans-34" transform="translate(127.001953 0)"/>
     <use xlink:href="#DejaVuSans-31" transform="translate(190.625 0)"/>
     <use xlink:href="#DejaVuSans-34" transform="translate(254.248047 0)"/>
     <use xlink:href="#DejaVuSans-38" transform="translate(317.871094 0)"/>
    </g>
   </g>
   <g id="text_16">
    <!-- 1n4148 -->
    <g transform="translate(449.27 202.543125) scale(0.14 -0.14)">
     <use xlink:href="#DejaVuSans-31"/>
     <use xlink:href="#DejaVuSans-6e" transform="translate(63.623047 0)"/>
     <use xlink:href="#DejaVuSans-34" transform="translate(127.001953 0)"/>
     <use xlink:href="#DejaVuSans-31" transform="translate(190.625 0)"/>
     <use xlink:href="#DejaVuSans-34" transform="translate(254.248047 0)"/>
     <use xlink:href="#DejaVuSans-38" transform="translate(317.871094 0)"/>
    </g>
   </g>
   <g id="text_17">
    <!-- 100k_vol -->
    <g transform="translate(622.2 202.348437) scale(0.14 -0.14)">
     <defs>
      <path id="DejaVuSans-6f" d="M 1959 3097 
Q 1497 3097 1228 2736 
Q 959 2375 959 1747 
Q 959 1119 1226 758 
Q 1494 397 1959 397 
Q 2419 397 2687 759 
Q 2956 1122 2956 1747 
Q 2956 2369 2687 2733 
Q 2419 3097 1959 3097 
z
M 1959 3584 
Q 2709 3584 3137 3096 
Q 3566 2609 3566 1747 
Q 3566 888 3137 398 
Q 2709 -91 1959 -91 
Q 1206 -91 779 398 
Q 353 888 353 1747 
Q 353 2609 779 3096 
Q 1206 3584 1959 3584 
z
" transform="scale(0.015625)"/>
      <path id="DejaVuSans-6c" d="M 603 4863 
L 1178 4863 
L 1178 0 
L 603 0 
L 603 4863 
z
" transform="scale(0.015625)"/>
     </defs>
     <use xlink:href="#DejaVuSans-31"/>
     <use xlink:href="#DejaVuSans-30" transform="translate(63.623047 0)"/>
     <use xlink:href="#DejaVuSans-30" transform="translate(127.246094 0)"/>
     <use xlink:href="#DejaVuSans-6b" transform="translate(190.869141 0)"/>
     <use xlink:href="#DejaVuSans-5f" transform="translate(248.779297 0)"/>
     <use xlink:href="#DejaVuSans-76" transform="translate(298.779297 0)"/>
     <use xlink:href="#DejaVuSans-6f" transform="translate(357.958984 0)"/>
     <use xlink:href="#DejaVuSans-6c" transform="translate(419.140625 0)"/>
    </g>
   </g>
   <g id="patch_8">
    <path d="M 65.16 147.38 
C 65.876048 147.38 66.562866 147.095511 67.069188 146.589188 
C 67.575511 146.082866 67.86 145.396048 67.86 144.68 
C 67.86 143.963952 67.575511 143.277134 67.069188 142.770812 
C 66.562866 142.264489 65.876048 141.98 65.16 141.98 
C 64.443952 141.98 63.757134 142.264489 63.250812 142.770812 
C 62.744489 143.277134 62.46 143.963952 62.46 144.68 
C 62.46 145.396048 62.744489 146.082866 63.250812 146.589188 
C 63.757134 147.095511 64.443952 147.38 65.16 147.38 
z
" clip-path="url(#p214ae73089)" style="stroke: #000000; stroke-width: 2; stroke-linejoin: miter"/>
   </g>
   <g id="text_18">
    <!-- input -->
    <g transform="translate(47.154688 135.468437) scale(0.14 -0.14)">
     <defs>
      <path id="DejaVuSans-70" d="M 1159 525 
L 1159 -1331 
L 581 -1331 
L 581 3500 
L 1159 3500 
L 1159 2969 
Q 1341 3281 1617 3432 
Q 1894 3584 2278 3584 
Q 2916 3584 3314 3078 
Q 3713 2572 3713 1747 
Q 3713 922 3314 415 
Q 2916 -91 2278 -91 
Q 1894 -91 1617 61 
Q 1341 213 1159 525 
z
M 3116 1747 
Q 3116 2381 2855 2742 
Q 2594 3103 2138 3103 
Q 1681 3103 1420 2742 
Q 1159 2381 1159 1747 
Q 1159 1113 1420 752 
Q 1681 391 2138 391 
Q 2594 391 2855 752 
Q 3116 1113 3116 1747 
z
" transform="scale(0.015625)"/>
      <path id="DejaVuSans-74" d="M 1172 4494 
L 1172 3500 
L 2356 3500 
L 2356 3053 
L 1172 3053 
L 1172 1153 
Q 1172 725 1289 603 
Q 1406 481 1766 481 
L 2356 481 
L 2356 0 
L 1766 0 
Q 1100 0 847 248 
Q 594 497 594 1153 
L 594 3053 
L 172 3053 
L 172 3500 
L 594 3500 
L 594 4494 
L 1172 4494 
z
" transform="scale(0.015625)"/>
     </defs>
     <use xlink:href="#DejaVuSans-69"/>
     <use xlink:href="#DejaVuSans-6e" transform="translate(27.783203 0)"/>
     <use xlink:href="#DejaVuSans-70" transform="translate(91.162109 0)"/>
     <use xlink:href="#DejaVuSans-75" transform="translate(154.638672 0)"/>
     <use xlink:href="#DejaVuSans-74" transform="translate(218.017578 0)"/>
    </g>
   </g>
   <g id="patch_9">
    <path d="M 659.28 147.38 
C 659.996048 147.38 660.682866 147.095511 661.189188 146.589188 
C 661.695511 146.082866 661.98 145.396048 661.98 144.68 
C 661.98 143.963952 661.695511 143.277134 661.189188 142.770812 
C 660.682866 142.264489 659.996048 141.98 659.28 141.98 
C 658.563952 141.98 657.877134 142.264489 657.370812 142.770812 
C 656.864489 143.277134 656.58 143.963952 656.58 144.68 
C 656.58 145.396048 656.864489 146.082866 657.370812 146.589188 
C 657.877134 147.095511 658.563952 147.38 659.28 147.38 
z
" clip-path="url(#p214ae73089)" style="stroke: #000000; stroke-width: 2; stroke-linejoin: miter"/>
   </g>
   <g id="text_19">
    <!-- output -->
    <g transform="translate(636.192031 135.468437) scale(0.14 -0.14)">
     <use xlink:href="#DejaVuSans-6f"/>
     <use xlink:href="#DejaVuSans-75" transform="translate(61.181641 0)"/>
     <use xlink:href="#DejaVuSans-74" transform="translate(124.560547 0)"/>
     <use xlink:href="#DejaVuSans-70" transform="translate(163.769531 0)"/>
     <use xlink:href="#DejaVuSans-75" transform="translate(227.246094 0)"/>
     <use xlink:href="#DejaVuSans-74" transform="translate(290.625 0)"/>
    </g>
   </g>
  </g>
 </g>
 <defs>
  <clipPath id="p214ae73089">
   <rect x="0" y="0" width="684.168" height="438.56"/>
  </clipPath>
 </defs>
</svg>
